<svg width="100%" height="100%" viewBox="0 0 40 40" fill="none" xmlns="http://www.w3.org/2000/svg">
<g clip-path="url(#clip0_666_15713)">
<path d="M20.0011 39.9999C31.0463 39.9999 40.0002 31.046 40.0002 20.0008C40.0002 8.95559 31.0463 0.00167847 20.0011 0.00167847C8.95586 0.00167847 0.00195312 8.95559 0.00195312 20.0008C0.00195312 31.046 8.95586 39.9999 20.0011 39.9999Z" fill="#D62427"/>
<path d="M0 20.0001C0 8.95354 8.95421 0 19.9995 0C31.0455 0 31.0455 40 19.9995 40C8.95446 39.9997 0 31.0454 0 20.0001Z" fill="#DC3027"/>
<path d="M12.9546 15.6345L13.8878 18.5082H16.9095L14.465 20.2832L15.3988 23.1569L12.9546 21.3813L10.5105 23.1569L11.4442 20.2832L9 18.5082H12.0209L12.9546 15.6345Z" fill="#F8D12E"/>
<path d="M20.0022 14L19.708 15.008L20.5752 15.5995L19.5261 15.6301L19.2324 16.6387L18.8779 15.65L17.8281 15.6819L18.659 15.0393L18.3044 14.0512L19.1722 14.6426L20.0022 14Z" fill="#F8D12E"/>
<path d="M20.0022 23.0274L19.708 24.0351L20.5752 24.6266L19.5261 24.6576L19.2324 25.6658L18.8779 24.6772L17.8281 24.7093L18.659 24.0667L18.3044 23.0786L19.1722 23.6695L20.0022 23.0274Z" fill="#F8D12E"/>
<path d="M22.5618 16.7515L22.2675 17.7595L23.135 18.3509L22.0857 18.3822L21.7916 19.3902L21.4371 18.4014L20.3877 18.4334L21.218 17.7907L20.8638 16.8026L21.7317 17.3941L22.5618 16.7515Z" fill="#F8D12E"/>
<path d="M22.5618 20.4317L22.2675 21.4397L23.135 22.0311L22.0857 22.0621L21.7916 23.0704L21.4371 22.082L20.3877 22.1139L21.218 21.4713L20.8638 20.4831L21.7317 21.074L22.5618 20.4317Z" fill="#F8D12E"/>
</g>
<defs>
<clipPath id="clip0_666_15713">
<rect width="100%" height="100%" fill="white"/>
</clipPath>
</defs>
</svg>
