<svg width="100%" height="100%" viewBox="0 0 40 40" fill="none" xmlns="http://www.w3.org/2000/svg">
<g clip-path="url(#clip0_666_15702)">
<path d="M20.0017 39.9999C31.0467 39.9999 40.0004 31.0462 40.0004 20.0012C40.0004 8.95618 31.0467 0.00244141 20.0017 0.00244141C8.95667 0.00244141 0.00292969 8.95618 0.00292969 20.0012C0.00292969 31.0462 8.95667 39.9999 20.0017 39.9999Z" fill="white"/>
<path d="M38.8562 13.3314C38.8543 13.3251 38.8524 13.3198 38.8498 13.314C36.2904 6.09682 29.7063 0.78685 21.7959 0.0820007C24.8568 1.76006 24.8697 38.2316 21.7959 39.9167C29.7208 39.2105 36.3141 33.8823 38.8638 26.6465C38.8704 26.6265 38.8761 26.6076 38.883 26.589C39.6033 24.5253 39.9994 22.3091 39.9994 20.0001C39.999 17.6606 39.5939 15.4172 38.8562 13.3314Z" fill="#D02027"/>
<path d="M27.5642 13.3314C26.7811 7.07669 24.8573 1.76014 21.796 0.082079C21.2273 0.0321729 20.6519 0.00439106 20.0709 0.00185775C20.047 0.00185775 20.0236 0 19.9992 0C11.299 0 3.90053 5.55655 1.14911 13.3141C1.14725 13.3198 1.14531 13.3252 1.14277 13.3315C0.40516 15.4172 0 17.6606 0 19.9998C0 22.3092 0.396631 24.525 1.11626 26.5887C1.12293 26.6074 1.12918 26.6263 1.13551 26.6462C3.87595 34.423 11.2852 39.9992 19.9992 39.9992C20.0232 39.9992 20.0466 39.9979 20.0709 39.9973C20.652 39.9954 21.2273 39.9676 21.796 39.9165C24.8699 38.2315 26.7974 32.8774 27.5739 26.5888C28.1026 22.3108 28.0991 17.6037 27.5642 13.3314Z" fill="#DB2727"/>
<path d="M9.39651 19.9434C9.39651 17.2321 11.5947 15.0338 14.3066 15.0338C15.219 15.0338 16.0725 15.283 16.8045 15.7166C15.7308 14.6559 14.2555 14 12.6266 14C9.34407 14 6.68359 16.6608 6.68359 19.943C6.68359 23.2253 9.34441 25.8861 12.6266 25.8861C14.2555 25.8861 15.7308 25.2299 16.8045 24.1688C16.0725 24.6024 15.2189 24.8522 14.3066 24.8522C11.5947 24.8527 9.39651 22.6546 9.39651 19.9434Z" fill="#F3F4F5"/>
<path d="M19.9059 16.7323L21.127 18.7221L23.3969 18.1751L21.882 19.952L23.1032 21.9408L20.9464 21.0497L19.431 22.826L19.6118 20.4983L17.4551 19.6072L19.7246 19.0606L19.9059 16.7323Z" fill="#F3F4F5"/>
</g>
<defs>
<clipPath id="clip0_666_15702">
<rect width="100%" height="100%" fill="white"/>
</clipPath>
</defs>
</svg>
