<svg width="100%" height="100%" viewBox="0 0 40 40" fill="none" xmlns="http://www.w3.org/2000/svg">
<g clip-path="url(#clip0_666_15726)">
<path d="M20 40C31.0457 40 40 31.0457 40 20C40 8.95431 31.0457 0 20 0C8.95431 0 0 8.95431 0 20C0 31.0457 8.95431 40 20 40Z" fill="#598922"/>
<path d="M38.8571 13.3315C38.8553 13.3251 38.8533 13.3198 38.8508 13.3141C36.2914 6.09685 29.7073 0.78688 21.7969 0.0820312C24.8578 1.76009 24.8707 38.2316 21.7969 39.9167C29.7218 39.2106 36.3151 33.8824 38.8647 26.6465C38.8713 26.6266 38.8771 26.6076 38.884 26.589C39.6043 24.5254 40.0003 22.3091 40.0003 20.0001C40 17.6606 39.5948 15.4172 38.8571 13.3315Z" fill="#558124"/>
<path d="M19.8125 16.6876C19.75 16.1251 20.0625 15.5626 20.625 15.6876C21.0625 15.7501 21.5625 16.1876 21.3125 16.6251C20.9375 17.3126 19.9375 17.3126 19.3125 17.6876C19.375 18.0626 21.1875 17.6251 21.5 17.6251C21.8125 17.6251 22.125 17.7501 21.9375 18.1251C21.75 18.5001 21.125 18.5001 20.75 18.5626C20.375 18.6251 19.75 18.6251 19.5625 18.9376C19.1875 19.4376 19.9375 19.5001 20.1875 19.6251C20.8125 19.9376 19.8125 20.2501 19.5625 20.1876C18.625 20.0001 18.4375 19.5001 17.875 18.8751C17.3125 19.6251 15.5625 21.3126 15.1875 19.5626C14.5625 19.8126 13.9375 20.1251 13.25 20.1876C13.5625 19.7501 14.1875 19.5626 14.6875 19.3126C15.3125 19.0001 15.3125 18.4376 15.6875 17.9376C15.8125 18.1251 15.6875 18.3751 15.75 18.6251C16.25 18.3751 16.875 17.8751 16.625 17.2501C16.625 17.1876 15.875 15.6876 16.5 15.9376C17.0625 16.1876 16.875 16.7501 17 17.1876C17.1875 18.0001 16.8125 18.4376 16.1875 18.9376C15.9375 19.1251 15.25 19.8751 16.0625 19.8751C16.625 19.8751 17.125 19.2501 17.4375 18.8751C17.8125 18.3751 17.6875 17.8751 17.4375 17.3126C17.25 16.8751 16.8125 15.9376 17.375 15.6251C17.8125 16.3126 18 17.1251 18.1875 17.9376C18.3125 18.6251 18.4375 19.3126 19.1875 19.5001C19.125 19.0001 19.4375 18.6251 19.875 18.4376C19.5625 18.1876 17.8125 18.5001 18.5 17.5626C18.5625 17.1251 19.8125 16.9376 19.8125 16.6876Z" fill="white"/>
<path d="M10.2499 19C10.5624 19.875 11.6249 19.5625 12.2499 19.3125C13.2499 18.8125 13.2499 18.0625 13.2499 17.0625C12.8749 17.25 12.9374 17.9375 12.8124 18.25C12.5624 18.75 11.7499 19.1875 11.1874 19.125C10.3749 19 9.99989 17.625 10.6249 17.125C10.7499 17.5625 10.4374 18.5 11.1874 18.5625C11.7499 18.625 12.8749 17.9375 12.6874 17.3125C11.9374 17.5625 11.4999 17.3125 11.7499 16.5C11.9374 15.75 12.6874 16.3125 12.9999 16.6875C14.1874 16 12.0624 13.375 13.3124 12.6875C13.5624 13.125 13.9374 13.6875 13.6249 14.125C13.2499 14.625 13.6249 15.6875 13.6874 16.25C14.3124 15.6875 13.8124 16.6875 14.3124 16.75C14.6249 16.8125 14.7499 16 14.9374 16C14.9999 16.1875 14.9999 16.75 15.3124 16.6875C15.6874 16.5625 15.2499 16.0625 15.6249 15.9375C15.7499 16.25 15.6874 17.1875 15.2499 17.125C14.8749 17.0625 14.9374 16.8125 14.4999 17.0625C14.1249 17.25 13.9999 17.0625 13.7499 16.875C13.6874 17.625 13.9374 18.4375 13.4999 19.125C13.1249 19.6875 12.3749 20 11.7499 20.125C10.1249 20.4375 9.68739 18.8125 10.2499 17.5C10.3749 17.875 10.1249 18.5625 10.2499 19Z" fill="white"/>
<path d="M25.4992 19.3125C25.8117 20.125 26.4367 18.4375 26.6242 18.1875C27.1242 17.4375 27.8742 19.375 28.1867 18.125C28.3742 17.3125 28.1242 16.5 28.0617 15.6875C27.9992 15.125 27.8117 14.625 27.4367 14.1875C27.0617 13.6875 26.6867 13.25 26.8742 12.625C27.4992 12.875 27.4992 13.375 27.8117 13.875C27.8742 13.5 27.6242 13 27.8742 12.6875C28.1867 12.25 28.4367 13.4375 28.4367 13.5625C28.4992 13.875 28.1867 14 28.3742 14.5C28.4992 14.875 28.7492 15.25 28.9992 15.5625C28.9367 15.1875 28.3742 12.625 28.9992 12.625C29.1867 12.625 29.3742 13.375 29.3742 13.5C29.4992 13.875 29.2492 14.1875 29.2492 14.625C29.1867 15.375 29.3117 16.25 29.8117 16.8125C30.0617 17.125 30.9992 18.25 30.4992 18.625C30.1242 18.1875 29.8742 17.6875 29.5617 17.25C29.5617 17.75 29.6867 18.3125 29.4367 18.6875C29.1867 18.5625 29.3117 17.75 29.3117 17.5625C29.3117 16.875 28.8742 16.3125 28.4992 15.75C28.3742 16.6875 29.1242 18.4375 28.2492 19.125C27.6867 19.625 26.9367 18.5 26.7492 18.9375C26.5617 19.25 26.1242 20.375 25.6242 20.25C24.9992 20.125 24.5617 18.375 25.2492 18.1875C25.3117 18.5 25.3117 18.9375 25.4992 19.3125Z" fill="white"/>
<path d="M12.1246 15.0625C12.5621 15.125 12.1246 13.625 12.1246 13.375C12.1871 13.125 12.3746 13 12.4996 13.25C12.6871 13.625 12.6871 14.0625 12.7496 14.4375C12.7496 14.75 12.8121 15.125 12.5621 15.375C12.1871 15.75 11.6871 15.5625 11.4996 15.0625C10.6246 15.8125 11.7496 17.125 10.9996 17.875C10.8746 17.1875 10.9996 16.4375 10.7496 15.8125C10.6246 15.5 10.0621 15.625 9.99956 15.0625C9.99956 14.8125 10.1871 14.125 9.93706 13.9375C9.81206 14.1875 9.68706 16.125 9.06206 15.5625C8.56206 15.1875 8.68706 13.9375 8.87456 13.4375C9.24956 13.625 8.81206 15 9.31206 15.0625C9.56206 15.125 9.62456 14.0625 9.68706 13.875C9.87456 13.5625 10.4996 12.6875 10.3746 13.5625C10.3121 13.9375 9.99956 15.125 10.7496 15.0625C10.6871 14.4375 10.6246 13.8125 10.4996 13.1875C10.4371 12.875 10.6246 12.25 10.8746 12.8125C11.0621 13.1875 10.9371 13.375 10.8746 13.75C10.8121 14.1875 10.9996 14.625 11.0621 15C11.4371 14.6875 10.9371 13.5 11.2496 13C11.9996 13.4375 11.1871 14.9375 12.1246 15.0625Z" fill="white"/>
<path d="M20.1875 15.1875C19.875 15.625 19.3125 15.25 19.0625 14.9375C18.75 15.3125 18.125 15.9375 17.625 15.4375C17.25 15.0625 17.6875 14.375 17.375 14.0625C17.1875 14.375 16.875 15.875 16.3125 15.1875C16 14.8125 15.5625 13.5 16.25 13.1875C16.1875 13.6875 16.0625 14.25 16.375 14.6875C16.6875 15.125 17 14 17.125 13.75C17.3125 13.3125 17.9375 12.5625 17.8125 13.5C17.75 13.875 17.625 14.75 18 15C18.25 15.1875 18.5625 14.875 18.6875 14.6875C18.9375 14.375 18.8125 13.875 18.75 13.5C18.6875 13.1875 18.5625 12.8125 18.75 12.5C19 12.125 19.1875 13 19.1875 13.1875C19.1875 13.375 19.4375 15.3125 19.875 14.6875C20.3125 14.125 19.125 12.875 19.9375 12.5625C20.25 12.4375 20.8125 13.6875 20.1875 13.3125C20.375 13.875 20.625 14.6875 20.1875 15.1875Z" fill="white"/>
<path d="M22.5616 15.9376C22.6241 16.7501 23.3116 19.0001 22.3741 19.5001C22.2491 19.2501 22.3741 18.8751 22.4366 18.5626C22.4991 18.0001 22.3741 17.4376 22.3116 16.9376C22.1866 15.7501 22.0616 14.8751 21.2491 13.9376C21.0616 13.6876 20.7491 13.5001 20.6866 13.1251C20.6866 13.0001 20.6241 12.4376 20.8741 12.5626C21.0616 12.6251 22.1241 13.5626 21.5616 13.5626C21.6241 13.6876 21.8741 14.1876 21.9991 14.1876C21.9991 13.8751 21.6241 12.9376 21.9991 12.7501C22.3116 12.5626 22.6866 13.7501 22.5616 14.0001C22.4366 14.3126 22.4366 14.5001 22.5616 14.9376C22.6866 15.4376 22.9991 15.8751 23.2491 16.3126C23.6241 16.9376 24.3741 17.8126 24.1866 18.6251C23.8116 18.4376 23.5616 17.5626 23.3741 17.1876C23.2491 16.8751 23.1241 16.5626 22.9366 16.3126C22.8741 16.2501 22.4991 15.7501 22.5616 16.0626V15.9376Z" fill="white"/>
<path d="M31.25 17.1251C31.3125 18.4376 30.875 20.1251 29.25 20.1251C29.25 19.7501 30.0625 19.3751 30.3125 19.1876C30.9375 18.6876 30.875 17.7501 30.8125 17.0626C30.75 16.1251 30.6875 15.1876 30.5 14.2501C30.4375 13.6876 30.125 12.8751 30.625 12.5001C30.9375 12.7501 31.375 13.4376 31.1875 13.6876C30.875 14.0626 31.1875 16.8751 31.25 17.1251Z" fill="white"/>
<path d="M23.25 19.9376C24.875 19.0001 24.375 17.0001 24.25 15.4376C24.1875 15.0001 24.1875 14.5626 24.125 14.1251C24.125 13.8126 23.875 13.3751 24 13.0626C24.3125 12.2501 24.5625 13.0001 24.625 13.5001C24.6875 13.8126 24.4375 13.8751 24.5 14.1251C24.5625 14.6251 24.5625 15.1251 24.625 15.6251C24.6875 16.4376 24.8125 17.25 24.75 18C24.625 19.1875 24 20.5001 22.5625 20.2501C22.625 20.1251 23.0625 20.0626 23.25 19.9376Z" fill="white"/>
<path d="M25.875 16.8125C25.9375 17.4375 26.1875 18.5625 25.875 19.125C25.625 19.5 25.625 18.875 25.5625 18.8125C25.5 18.3125 25.5 17.8125 25.5 17.25C25.375 15.875 24.9375 14.5 24.9375 13.1875C24.9375 11.5 26.375 14.125 25.5625 14C25.625 14.9375 25.75 15.875 25.875 16.8125Z" fill="white"/>
<path d="M15.6873 13.625C15.8123 13.9375 14.2498 14.75 14.0623 14.75C13.9998 14.4375 14.7498 14 14.9373 13.875C15.1248 13.6875 15.2498 13.6875 15.1873 13.4375C15.0623 13.1875 15.1248 12.75 15.4373 12.625C16.0623 12.4375 15.6248 13.375 15.6873 13.625Z" fill="white"/>
<path d="M9.24968 19.1876C9.24968 19.6876 9.43718 19.4376 9.68718 19.3126C9.81218 19.5626 9.49968 20.2501 9.18718 19.9376C8.74968 19.5001 9.12468 18.5001 9.31218 18.0626C9.43718 18.3751 9.18718 18.8751 9.24968 19.1876Z" fill="white"/>
<path d="M26.8749 15.3125C26.9374 15.0625 26.7499 14.8125 26.9374 14.5625C27.1874 14.25 27.4374 14.625 27.3124 14.75C27.1874 14.875 26.9999 14.625 26.9999 15C26.9999 15.1875 27.1249 15.5625 26.9374 15.75C26.8124 15.6875 26.2499 14.875 26.3124 14.75C26.5624 14.5 26.8124 15.25 26.8749 15.3125Z" fill="white"/>
<path d="M10.5625 16.375C10.4375 16.625 9 17.4375 8.9375 17.25C8.9375 17.0625 10.75 16 10.5625 16.375Z" fill="white"/>
<path d="M21.187 19.5625C20.9995 20.125 21.812 19.625 21.9995 19.5625C21.7495 20 20.8745 20.375 20.9995 19.5625C20.937 19.5625 20.812 19.625 20.7495 19.625C20.6245 19.5 21.3745 19 21.187 19.5625Z" fill="white"/>
<path d="M27.9995 19.3751C28.187 19.3751 28.4995 19.9376 28.312 20.0626C28.187 20.1876 27.6245 20.2501 27.937 20.0001C28.312 19.6251 27.9995 19.3751 27.9995 19.3751Z" fill="white"/>
<path d="M19.1868 16.1876C19.2493 16.0626 19.2493 15.8751 19.3118 15.7501C19.9368 16.2501 18.3118 17.0626 18.6243 15.8751C18.7493 16.0001 18.7493 16.1876 18.8743 16.2501C18.8743 16.1251 18.9368 15.9376 18.9368 15.8126C19.0618 15.9376 19.0618 16.1251 19.1868 16.1876Z" fill="white"/>
<path d="M26.4995 17.0001C26.312 16.7501 27.437 16.0626 27.6245 15.9376C27.7495 16.1251 26.8745 16.8126 26.4995 17.0001Z" fill="white"/>
<path d="M29.9993 14.5001C29.8743 14.1251 29.4993 13.3751 29.8743 13.0626C30.1243 13.2501 30.2493 14.1876 29.9993 14.5001Z" fill="white"/>
<path d="M23.1875 13.2501C23.125 13.1251 22.9375 13.0001 22.9375 12.8126C23 12.5626 23.125 12.6251 23.25 12.7501C23.4375 13.0001 23.5625 13.6876 23.25 13.8751C23.25 13.6876 23.3125 13.4376 23.1875 13.2501Z" fill="white"/>
<path d="M15.5619 14.9375C15.5619 15.3125 14.9369 15.6875 14.8744 15.1875C14.8119 15 15.1244 14.3125 15.2494 14.5C14.9994 15.0625 14.9994 15.25 15.5619 14.9375Z" fill="white"/>
<path d="M23.3748 14.2501C23.6248 14.8751 23.4998 14.3126 23.7498 14.1876C24.1873 15.0001 22.8123 14.8126 23.1248 14.3126C23.1873 14.3751 23.2498 14.5001 23.2498 14.5626C23.3123 14.5001 23.3123 14.3751 23.3748 14.2501Z" fill="white"/>
<path d="M27.3749 17.1251C27.0624 16.8751 27.4374 16.5626 27.6249 16.8751C27.7499 17.0626 27.7499 17.5626 27.4999 17.6876C27.4999 17.5001 27.5624 17.2501 27.3749 17.1251Z" fill="white"/>
<path d="M14.5618 18.5001C14.5618 18.3751 14.4993 17.4376 14.6868 17.5626C14.9368 17.6876 14.8743 18.3751 14.5618 18.5001Z" fill="white"/>
<path d="M11.9375 12.6251C12 12.8126 12.0625 13.0626 12.1875 12.7501C12.6875 13.3126 10.9375 13.1251 11.5625 12.5626C11.5625 12.6251 11.6875 13.0001 11.9375 12.6251Z" fill="white"/>
<path d="M18.3119 14C18.3119 13.75 17.9369 12.6875 18.2494 12.6875C18.6244 12.75 18.5619 13.6875 18.3119 14Z" fill="white"/>
<path d="M9.56252 13.4376C9.37502 13.3751 9.68752 13.0625 9.56252 12.8125C9.43752 12.875 9.31252 12.6876 9.43752 12.5626C9.93752 12.1876 9.75002 13.4376 9.56252 13.4376Z" fill="white"/>
<path d="M25.75 26.1251L25.5 25.3751L25.25 26.1251H11.5625C11.5625 26.1251 11.6875 27.2501 13.0625 27.2501H25.1875V28.1251H28.5V26.1251H25.75ZM27.875 27.6251H25.625V27.0001H27.875V27.6251Z" fill="white"/>
</g>
<defs>
<clipPath id="clip0_666_15726">
<rect width="100%" height="100%" fill="white"/>
</clipPath>
</defs>
</svg>
