<svg width="100%" height="100%" viewBox="0 0 40 40" fill="none" xmlns="http://www.w3.org/2000/svg">
<g clip-path="url(#clip0_666_15651)">
<path d="M36.4776 31.3325C37.7673 29.4605 38.7475 27.3586 39.3418 25.0994H30.2442L36.4776 31.3325Z" fill="#29337A"/>
<path d="M25.6013 39.1995C27.9056 38.5284 30.0397 37.4575 31.9189 36.0608L25.6013 29.7431V39.1995Z" fill="#29337A"/>
<path d="M31.4492 3.60564C29.6865 2.37215 27.7172 1.41725 25.6014 0.801135V9.45255L31.4492 3.60564Z" fill="#29337A"/>
<path d="M39.1123 14.0947C38.451 11.9526 37.4377 9.96538 36.1426 8.1976L30.2456 14.0947H39.1123Z" fill="#29337A"/>
<path d="M36.1478 31.7967C36.2597 31.6438 36.3699 31.4888 36.4779 31.3321L30.2445 25.0991H39.3421C39.4895 24.5379 39.6098 23.966 39.709 23.3862H27.7367L36.1478 31.7967Z" fill="white"/>
<path d="M31.9131 3.93565C31.7609 3.82224 31.6045 3.71432 31.4492 3.60564L25.6014 9.4528V0.801386C25.0396 0.63714 24.469 0.495357 23.8885 0.381356V11.96L31.9131 3.93565Z" fill="white"/>
<path d="M39.5566 15.8076C39.4325 15.2272 39.286 14.6556 39.1126 14.0947H30.2458L36.1429 8.19761C35.5015 7.32132 34.7903 6.49899 34.0175 5.73856L23.9486 15.8076H39.5566Z" fill="white"/>
<path d="M25.6012 39.1995V29.7431L31.9189 36.0605C32.7899 35.4128 33.604 34.6937 34.3584 33.9153L23.8886 23.4455V39.6195C24.4688 39.5048 25.0394 39.3627 25.6012 39.1995Z" fill="white"/>
<path d="M25.6011 14.155L25.6611 14.0947H25.6011V14.155Z" fill="#D32030"/>
<path d="M23.9482 15.8076H23.8883V15.8678L23.9482 15.8076Z" fill="#D32030"/>
<path d="M16.2518 23.3865H16.3096V23.3284L16.2518 23.3865Z" fill="#D32030"/>
<path d="M25.5425 25.0991L25.6016 25.1584V25.0991H25.5425Z" fill="#D32030"/>
<path d="M23.8887 23.4456V23.3865H23.8296L23.8887 23.4456Z" fill="#D32030"/>
<path d="M14.5967 5.2285V0.745216C12.4534 1.3452 10.4551 2.29099 8.6677 3.52321L13.5255 8.381C13.9137 7.01713 14.0557 6.31201 14.5967 5.2285Z" fill="#252F6C"/>
<path d="M13.4999 30.8401L8.19683 36.1432C10.102 37.5384 12.2633 38.6017 14.5967 39.2554V34.6499C13.973 33.4009 13.9205 32.4519 13.4999 30.8401Z" fill="#252F6C"/>
<path d="M3.93953 8.08105C2.60403 9.87762 1.56316 11.9056 0.887091 14.0947H9.95312L3.93953 8.08105Z" fill="#252F6C"/>
<path d="M0.657833 25.0991C1.26482 27.4059 2.27437 29.5473 3.6048 31.4487L9.95508 25.0991H0.657833Z" fill="#252F6C"/>
<path d="M12.332 15.4687L10.9577 14.0943L4.37915 7.5158C4.22977 7.70276 4.0814 7.88905 3.9386 8.08074L9.9522 14.0943H0.886161C0.713386 14.6549 0.56662 15.2267 0.442823 15.8072H12.2035C12.2228 15.5644 12.309 15.7099 12.332 15.4687Z" fill="#E7E7E7"/>
<path d="M13.7082 29.8372L7.74578 35.8003C7.89516 35.9161 8.0448 36.0314 8.19739 36.1432L13.5005 30.8401C13.4455 30.6305 13.7594 30.0519 13.7082 29.8372Z" fill="#E7E7E7"/>
<path d="M14.5967 35.0184V39.2557C15.1578 39.4129 15.7291 39.5462 16.3096 39.6549V37.588C15.6723 36.8971 15.101 36.0292 14.5967 35.0184Z" fill="#E7E7E7"/>
<path d="M12.467 23.3865H0.290449C0.389335 23.9663 0.509923 24.5379 0.657364 25.0994H9.95461L3.60433 31.449C4.22863 32.3408 4.92244 33.1795 5.68033 33.9567L12.833 26.8047C12.6404 25.5073 12.5542 24.7539 12.467 23.3865Z" fill="#E7E7E7"/>
<path d="M13.8145 8.67067L8.66735 3.52298C7.81124 4.11257 7.00505 4.7688 6.25281 5.48118L13.023 12.2517C13.2391 10.9996 13.4955 9.79016 13.8145 8.67067Z" fill="#E7E7E7"/>
<path d="M16.3096 2.64981V0.34614C15.7292 0.454146 15.1582 0.588075 14.5967 0.745312V5.22859C15.1013 4.21736 15.6726 3.33981 16.3096 2.64981Z" fill="#E7E7E7"/>
<path d="M12.8331 26.8047L5.68106 33.9567C6.32495 34.618 7.01529 35.2334 7.74541 35.8003L13.3652 30.1795C13.1154 29.1355 13.002 27.9406 12.8331 26.8047Z" fill="#D71F28"/>
<path d="M20.998 39.9753C20.6648 39.9915 20.3326 40 20.0002 40C20.3346 40 20.6674 39.9915 20.998 39.9753Z" fill="#D32030"/>
<path d="M19.9998 -1.81794e-06C20.3323 -1.81794e-06 20.6645 0.00911663 20.9971 0.0252457C20.6664 0.00852552 20.3342 -1.81794e-06 19.9998 -1.81794e-06Z" fill="#D32030"/>
<path d="M20 -1.0252e-05C18.7381 -1.0252e-05 17.5059 0.122182 16.3091 0.346131V2.6498C17.3597 1.51105 18.5887 -1.0252e-05 20 -1.0252e-05Z" fill="#D32030"/>
<path d="M0.291356 23.3865H12.3097C12.1505 20.8781 12.1698 18.2988 12.3672 15.8075H0.443526C0.154893 17.1601 0.000189781 18.5616 0.000189781 19.9997C0.000189781 21.1549 0.103127 22.2847 0.291356 23.3865Z" fill="#D71F28"/>
<path d="M12.3325 15.4687C12.4436 14.2869 12.8308 13.3662 13.0234 12.2514L6.25321 5.48117C5.58339 6.11595 4.95723 6.79488 4.37996 7.51579L10.9582 14.0947L12.3325 15.4687Z" fill="#D71F28"/>
<path d="M16.309 37.4393V39.6545C17.5055 39.8778 18.7377 40 20 40C18.5887 40 17.3597 38.5777 16.309 37.4393Z" fill="#D32030"/>
<path d="M14.5967 4.36353C14.0557 5.4473 13.5919 6.69498 13.2034 8.0586L14.5967 9.45186V4.36353Z" fill="#29337A"/>
<path d="M13.0301 31.3101C13.4513 32.9219 13.973 34.3872 14.5967 35.6361V29.7441L13.0301 31.3101Z" fill="#29337A"/>
<path d="M11.9442 15.0809C11.9215 15.3222 11.901 15.5644 11.8814 15.8076H12.6709L11.9442 15.0809Z" fill="white"/>
<path d="M14.5967 29.744V35.6364C15.1013 36.6472 15.6723 37.5156 16.3096 38.206V27.236L12.8697 30.6759C12.9215 30.8906 12.9758 31.101 13.0301 31.3107L14.5967 29.744Z" fill="white"/>
<path d="M16.252 23.3865H11.8246C11.9114 24.7538 12.0497 26.0991 12.2421 27.3961L16.252 23.3865Z" fill="white"/>
<path d="M16.3096 1.7943C15.6723 2.48523 15.1013 3.35308 14.5967 4.36389V9.45221L13.2034 8.05895C12.8839 9.17903 12.6158 10.3756 12.3991 11.6277L16.3095 15.5378L16.3096 1.7943Z" fill="white"/>
<path d="M16.3093 1.79429V15.5378L12.3992 11.6274C12.2069 12.7425 12.0556 13.8989 11.9448 15.0809L12.6714 15.8076H11.8819C11.6846 18.2989 11.6653 20.8782 11.8244 23.3865H16.2518L12.2422 27.3961C12.4112 28.5323 12.6202 29.6313 12.87 30.6756L16.3092 27.2358V38.2057C17.36 39.3445 18.589 40 20.0003 40C20.3329 40 20.6651 39.9915 20.9982 39.9753C21.9819 39.9261 22.9466 39.8051 23.8884 39.6194V23.4455L34.3584 33.9153C35.0017 33.2515 35.6001 32.5442 36.1477 31.7967L29.4501 25.0991L27.7366 23.3862H39.7088C39.8964 22.2847 40 21.1549 40 19.9997C40 18.5612 39.8446 17.1601 39.5567 15.8076H23.9483L34.0173 5.73856C33.358 5.09086 32.656 4.48767 31.9129 3.93574L23.8886 11.96V0.381187C22.947 0.195492 21.9816 0.0745659 20.9979 0.0252495C20.6653 0.00912094 20.3331 0 20.0006 0C18.589 0 17.36 0.655548 16.3093 1.79429Z" fill="#E51D35"/>
</g>
<defs>
<clipPath id="clip0_666_15651">
<rect width="100%" height="100%" fill="white" transform="matrix(-1 0 0 -1 40 40)"/>
</clipPath>
</defs>
</svg>
